<svg xmlns="http://www.w3.org/2000/svg" aria-hidden="true" viewBox="4.724 2.8435 16.0079 15.9989" fill="currentColor">
    <path d="M10.403 2.892c-1.024.157-1.97.517-2.756 1.047-.406.275-.58.416-.92.747a6.499 6.499 0 0 0-2.003 4.71c0 .605.062 1.09.213 1.676a5.2 5.2 0 0 0 .478 1.27c.353.71.726 1.21 1.342 1.807 1.005.972 2.21 1.56 3.614 1.767.415.062 1.374.072 1.744.016 1.047-.15 1.87-.458 2.845-1.067.18-.114.343-.21.36-.21.013 0 .933.908 2.039 2.017 2.19 2.193 2.167 2.174 2.52 2.17.59-.003.972-.52.819-1.1-.04-.147-.18-.294-2.099-2.219-1.132-1.136-2.058-2.075-2.058-2.091 0-.013.098-.184.219-.373.599-.953.906-1.778 1.057-2.829.056-.37.046-1.328-.016-1.744a6.615 6.615 0 0 0-1.162-2.907c-.236-.334-.884-1.018-1.211-1.283A7.548 7.548 0 0 0 13.61 3.25a8.542 8.542 0 0 0-1.45-.357c-.452-.066-1.345-.066-1.758 0Zm1.719 1.731c.952.158 1.869.639 2.585 1.356.72.723 1.13 1.482 1.35 2.5.094.442.1 1.323.016 1.784a4.812 4.812 0 0 1-1.366 2.56 4.765 4.765 0 0 1-2.569 1.365c-.448.088-1.329.078-1.784-.02-1.018-.216-1.767-.622-2.49-1.342-.6-.602-.914-1.103-1.212-1.94-.2-.56-.236-.822-.216-1.55.026-.85.157-1.4.5-2.08.708-1.415 2.145-2.46 3.63-2.646l.394-.049c.176-.026.844.013 1.162.062Z"/>
</svg>
