<svg xmlns="http://www.w3.org/2000/svg" fill="none" viewBox="0 0 1280 80">
    <g id="surge_table/title">
        <g id="Frame 1730">
            <g id="surge_table/title_2">
                <path id="Rectangle 35" fill="#FFAB8E" d="M264 16h580v32H264z" opacity=".8"/>
                <path id="Sign up for Surge No" fill="#323232" d="M532.339 27.27V37h-1.596v-6.664L527.775 37h-1.106l-2.982-6.664V37h-1.596v-9.73h1.722l3.416 7.63 3.402-7.63h1.708Zm7.235 9.828c-.905 0-1.74-.21-2.506-.63a4.854 4.854 0 0 1-1.806-1.778c-.438-.765-.658-1.624-.658-2.576s.22-1.806.658-2.562a4.749 4.749 0 0 1 1.806-1.764 5.039 5.039 0 0 1 2.506-.644c.915 0 1.75.215 2.506.644a4.612 4.612 0 0 1 1.806 1.764c.439.756.658 1.61.658 2.562 0 .952-.219 1.81-.658 2.576a4.712 4.712 0 0 1-1.806 1.778c-.756.42-1.591.63-2.506.63Zm0-1.386c.644 0 1.218-.145 1.722-.434a3.068 3.068 0 0 0 1.176-1.26c.29-.55.434-1.185.434-1.904 0-.719-.144-1.349-.434-1.89a2.976 2.976 0 0 0-1.176-1.246c-.504-.29-1.078-.434-1.722-.434-.644 0-1.218.145-1.722.434-.504.29-.9.705-1.19 1.246-.28.541-.42 1.171-.42 1.89 0 .719.14 1.353.42 1.904.29.541.686.961 1.19 1.26.504.29 1.078.434 1.722.434ZM554.809 37h-1.596l-4.802-7.266V37h-1.596v-9.744h1.596l4.802 7.252v-7.252h1.596V37Zm9.082-9.73v1.302h-2.59V37h-1.596v-8.428h-2.604V27.27h6.79Zm10.086 0V37h-1.596v-4.256h-4.578V37h-1.596v-9.73h1.596v4.172h4.578V27.27h1.596Zm6.718.98v-1.456h2.912V37h-1.61v-8.75h-1.302Z"/>
            </g>
            <g id="surge_table/title_3">
                <path id="Rectangle 35_2" fill="#FFAB8E" d="M844 16h145v32H844z" opacity=".6"/>
                <path id="Sign up for Surge No_2" fill="#323232" d="M893.746 27.27V37h-1.596v-6.664L889.182 37h-1.106l-2.982-6.664V37h-1.596v-9.73h1.722l3.416 7.63 3.402-7.63h1.708Zm7.236 9.828c-.906 0-1.741-.21-2.506-.63a4.854 4.854 0 0 1-1.806-1.778c-.439-.765-.658-1.624-.658-2.576s.219-1.806.658-2.562a4.749 4.749 0 0 1 1.806-1.764c.765-.43 1.6-.644 2.506-.644.914 0 1.75.215 2.506.644a4.626 4.626 0 0 1 1.806 1.764c.438.756.658 1.61.658 2.562 0 .952-.22 1.81-.658 2.576a4.726 4.726 0 0 1-1.806 1.778c-.756.42-1.592.63-2.506.63Zm0-1.386c.644 0 1.218-.145 1.722-.434a3.068 3.068 0 0 0 1.176-1.26c.289-.55.434-1.185.434-1.904 0-.719-.145-1.349-.434-1.89a2.976 2.976 0 0 0-1.176-1.246c-.504-.29-1.078-.434-1.722-.434-.644 0-1.218.145-1.722.434-.504.29-.901.705-1.19 1.246-.28.541-.42 1.171-.42 1.89 0 .719.14 1.353.42 1.904.289.541.686.961 1.19 1.26.504.29 1.078.434 1.722.434ZM916.216 37h-1.596l-4.802-7.266V37h-1.596v-9.744h1.596l4.802 7.252v-7.252h1.596V37Zm9.082-9.73v1.302h-2.59V37h-1.596v-8.428h-2.604V27.27h6.79Zm10.086 0V37h-1.596v-4.256h-4.578V37h-1.596v-9.73h1.596v4.172h4.578V27.27h1.596Zm7.81 7.56a55.047 55.047 0 0 0 2.114-1.904 8.634 8.634 0 0 0 1.302-1.568c.345-.541.518-1.083.518-1.624 0-.56-.135-.999-.406-1.316-.261-.317-.677-.476-1.246-.476-.551 0-.98.177-1.288.532-.299.345-.457.812-.476 1.4h-1.54c.028-1.064.345-1.876.952-2.436.616-.57 1.395-.854 2.338-.854 1.017 0 1.811.28 2.38.84.579.56.868 1.307.868 2.24 0 .672-.173 1.32-.518 1.946a7.725 7.725 0 0 1-1.218 1.666 31.438 31.438 0 0 1-1.792 1.694l-.63.56h4.438v1.33h-6.804v-1.162l1.008-.868Z"/>
            </g>
            <g id="surge_table/title_4">
                <path id="Rectangle 35_3" fill="#FFAB8E" d="M989 16h145v32H989z" opacity=".4"/>
                <path id="Sign up for Surge No_3" fill="#323232" d="M1038.63 27.27V37h-1.6v-6.664L1034.07 37h-1.11l-2.98-6.664V37h-1.6v-9.73h1.72l3.42 7.63 3.4-7.63h1.71Zm7.24 9.828c-.91 0-1.75-.21-2.51-.63a4.85 4.85 0 0 1-1.81-1.778c-.44-.765-.65-1.624-.65-2.576s.21-1.806.65-2.562a4.745 4.745 0 0 1 1.81-1.764c.76-.43 1.6-.644 2.51-.644.91 0 1.75.215 2.5.644a4.61 4.61 0 0 1 1.81 1.764c.44.756.66 1.61.66 2.562 0 .952-.22 1.81-.66 2.576a4.708 4.708 0 0 1-1.81 1.778c-.75.42-1.59.63-2.5.63Zm0-1.386c.64 0 1.21-.145 1.72-.434.5-.299.89-.719 1.17-1.26.29-.55.44-1.185.44-1.904 0-.719-.15-1.349-.44-1.89a2.987 2.987 0 0 0-1.17-1.246 3.415 3.415 0 0 0-1.72-.434c-.65 0-1.22.145-1.73.434-.5.29-.9.705-1.19 1.246-.28.541-.42 1.171-.42 1.89 0 .719.14 1.353.42 1.904.29.541.69.961 1.19 1.26.51.29 1.08.434 1.73.434ZM1061.1 37h-1.6l-4.8-7.266V37h-1.59v-9.744h1.59l4.8 7.252v-7.252h1.6V37Zm9.08-9.73v1.302h-2.59V37H1066v-8.428h-2.61V27.27h6.79Zm10.09 0V37h-1.6v-4.256h-4.58V37h-1.59v-9.73h1.59v4.172h4.58V27.27h1.6Zm6.9 2.044c.05-.868.39-1.545.99-2.03.62-.485 1.4-.728 2.35-.728.66 0 1.22.117 1.7.35.47.233.83.55 1.08.952.24.401.36.854.36 1.358 0 .579-.15 1.073-.46 1.484-.31.41-.68.686-1.11.826v.056c.55.168.98.476 1.29.924.31.439.46 1.003.46 1.694 0 .55-.12 1.04-.38 1.47-.25.43-.62.77-1.12 1.022-.49.243-1.08.364-1.77.364-1.01 0-1.84-.257-2.5-.77-.64-.523-.99-1.27-1.03-2.24h1.54c.04.495.23.9.57 1.218.35.308.81.462 1.4.462.57 0 1.01-.154 1.32-.462.31-.317.46-.723.46-1.218 0-.653-.21-1.115-.63-1.386-.41-.28-1.05-.42-1.9-.42h-.37v-1.316h.38c.76-.01 1.33-.135 1.72-.378.4-.243.6-.625.6-1.148 0-.448-.14-.803-.43-1.064-.29-.27-.7-.406-1.23-.406-.52 0-.93.135-1.22.406-.29.261-.46.588-.52.98h-1.55Z"/>
            </g>
            <g id="surge_table/title_5">
                <path id="Rectangle 35_4" fill="#FFAB8E" d="M1134 16h138c4.42 0 8 3.582 8 8v24h-146V16Z" opacity=".2"/>
                <path id="Sign up for Surge No_4" fill="#323232" d="M1183.75 27.27V37h-1.59v-6.664L1179.19 37h-1.11l-2.98-6.664V37h-1.59v-9.73h1.72l3.41 7.63 3.41-7.63h1.7Zm7.24 9.828c-.91 0-1.74-.21-2.51-.63a4.897 4.897 0 0 1-1.8-1.778c-.44-.765-.66-1.624-.66-2.576s.22-1.806.66-2.562a4.79 4.79 0 0 1 1.8-1.764c.77-.43 1.6-.644 2.51-.644.91 0 1.75.215 2.51.644a4.65 4.65 0 0 1 1.8 1.764c.44.756.66 1.61.66 2.562 0 .952-.22 1.81-.66 2.576a4.752 4.752 0 0 1-1.8 1.778c-.76.42-1.6.63-2.51.63Zm0-1.386c.64 0 1.22-.145 1.72-.434.51-.299.9-.719 1.18-1.26.29-.55.43-1.185.43-1.904 0-.719-.14-1.349-.43-1.89a2.948 2.948 0 0 0-1.18-1.246c-.5-.29-1.08-.434-1.72-.434-.64 0-1.22.145-1.72.434-.51.29-.9.705-1.19 1.246-.28.541-.42 1.171-.42 1.89 0 .719.14 1.353.42 1.904.29.541.68.961 1.19 1.26.5.29 1.08.434 1.72.434ZM1206.22 37h-1.59l-4.8-7.266V37h-1.6v-9.744h1.6l4.8 7.252v-7.252h1.59V37Zm9.09-9.73v1.302h-2.59V37h-1.6v-8.428h-2.6V27.27h6.79Zm10.08 0V37h-1.59v-4.256h-4.58V37h-1.6v-9.73h1.6v4.172h4.58V27.27h1.59Zm6.73 7.602v-1.204l4.71-6.748h1.93v6.566h1.3v1.386h-1.3V37h-1.57v-2.128h-5.07Zm5.14-6.328-3.3 4.942h3.3v-4.942Z"/>
            </g>
        </g>
        <g id="Frame 1730_2">
            <g id="surge_table/subtitle">
                <path id="Rectangle 35_5" fill="#F7F7F7" d="M264 48h145v32H264z"/>
                <path id="Sign up for Surge No_5" fill="#323232" d="M326.62 59.242 323.792 69h-1.428l-2.268-7.854L317.744 69l-1.414.014-2.73-9.772h1.358l2.128 8.274 2.352-8.274h1.428l2.24 8.246 2.142-8.246h1.372Zm8.394 5.628c0 .243-.014.5-.042.77h-6.132c.047.756.304 1.349.77 1.778.476.42 1.05.63 1.722.63.551 0 1.008-.126 1.372-.378.374-.261.635-.607.784-1.036h1.372a3.33 3.33 0 0 1-1.232 1.806c-.616.457-1.381.686-2.296.686-.728 0-1.381-.163-1.96-.49a3.499 3.499 0 0 1-1.344-1.386c-.326-.607-.49-1.307-.49-2.1 0-.793.159-1.489.476-2.086a3.315 3.315 0 0 1 1.33-1.372c.579-.327 1.242-.49 1.988-.49.728 0 1.372.159 1.932.476.56.317.99.756 1.288 1.316.308.55.462 1.176.462 1.876Zm-1.316-.266c0-.485-.107-.9-.322-1.246a2.019 2.019 0 0 0-.882-.798 2.63 2.63 0 0 0-1.218-.28c-.644 0-1.194.205-1.652.616-.448.41-.704.98-.77 1.708h4.844Zm9.998.266c0 .243-.014.5-.042.77h-6.132c.047.756.303 1.349.77 1.778.476.42 1.05.63 1.722.63.551 0 1.008-.126 1.372-.378.373-.261.635-.607.784-1.036h1.372a3.33 3.33 0 0 1-1.232 1.806c-.616.457-1.381.686-2.296.686-.728 0-1.381-.163-1.96-.49a3.499 3.499 0 0 1-1.344-1.386c-.327-.607-.49-1.307-.49-2.1 0-.793.159-1.489.476-2.086a3.309 3.309 0 0 1 1.33-1.372c.579-.327 1.241-.49 1.988-.49.728 0 1.372.159 1.932.476.56.317.989.756 1.288 1.316.308.55.462 1.176.462 1.876Zm-1.316-.266c0-.485-.107-.9-.322-1.246a2.03 2.03 0 0 0-.882-.798 2.63 2.63 0 0 0-1.218-.28c-.644 0-1.195.205-1.652.616-.448.41-.705.98-.77 1.708h4.844ZM349.662 69l-3.01-3.388V69h-1.274V58.64h1.274v6.09l2.954-3.402h1.778l-3.612 3.822 3.626 3.85h-1.736Zm6.107-8.96v-1.162h2.632V69h-1.288v-8.96h-1.344Z"/>
            </g>
            <g id="surge_table/subtitle_2">
                <path id="Rectangle 35_6" fill="#F7F7F7" d="M409 48h145v32H409z"/>
                <path id="Sign up for Surge No_6" fill="#323232" d="M469.836 59.242 467.008 69h-1.428l-2.268-7.854L460.96 69l-1.414.014-2.73-9.772h1.358l2.128 8.274 2.352-8.274h1.428l2.24 8.246 2.142-8.246h1.372Zm8.394 5.628c0 .243-.014.5-.042.77h-6.132c.047.756.303 1.349.77 1.778.476.42 1.05.63 1.722.63.551 0 1.008-.126 1.372-.378.373-.261.635-.607.784-1.036h1.372a3.33 3.33 0 0 1-1.232 1.806c-.616.457-1.381.686-2.296.686-.728 0-1.381-.163-1.96-.49a3.499 3.499 0 0 1-1.344-1.386c-.327-.607-.49-1.307-.49-2.1 0-.793.159-1.489.476-2.086a3.309 3.309 0 0 1 1.33-1.372c.579-.327 1.241-.49 1.988-.49.728 0 1.372.159 1.932.476.56.317.989.756 1.288 1.316.308.55.462 1.176.462 1.876Zm-1.316-.266c0-.485-.107-.9-.322-1.246a2.03 2.03 0 0 0-.882-.798 2.63 2.63 0 0 0-1.218-.28c-.644 0-1.195.205-1.652.616-.448.41-.705.98-.77 1.708h4.844Zm9.998.266c0 .243-.014.5-.042.77h-6.132c.046.756.303 1.349.77 1.778.476.42 1.05.63 1.722.63.55 0 1.008-.126 1.372-.378.373-.261.634-.607.784-1.036h1.372a3.336 3.336 0 0 1-1.232 1.806c-.616.457-1.382.686-2.296.686-.728 0-1.382-.163-1.96-.49a3.485 3.485 0 0 1-1.344-1.386c-.327-.607-.49-1.307-.49-2.1 0-.793.158-1.489.476-2.086a3.303 3.303 0 0 1 1.33-1.372c.578-.327 1.241-.49 1.988-.49.728 0 1.372.159 1.932.476.56.317.989.756 1.288 1.316.308.55.462 1.176.462 1.876Zm-1.316-.266c0-.485-.108-.9-.322-1.246a2.03 2.03 0 0 0-.882-.798 2.63 2.63 0 0 0-1.218-.28c-.644 0-1.195.205-1.652.616-.448.41-.705.98-.77 1.708h4.844ZM492.877 69l-3.01-3.388V69h-1.274V58.64h1.274v6.09l2.954-3.402h1.778l-3.612 3.822 3.626 3.85h-1.736Zm6.29-1.022a66.482 66.482 0 0 0 2.786-2.338 11.39 11.39 0 0 0 1.694-1.918c.467-.672.7-1.33.7-1.974 0-.607-.149-1.083-.448-1.428-.289-.355-.761-.532-1.414-.532-.635 0-1.129.2-1.484.602-.345.392-.532.92-.56 1.582h-1.232c.037-1.045.355-1.853.952-2.422.597-.57 1.367-.854 2.31-.854.961 0 1.722.266 2.282.798.569.532.854 1.265.854 2.198 0 .775-.233 1.53-.7 2.268a9.979 9.979 0 0 1-1.568 1.932 40.953 40.953 0 0 1-2.254 1.932h4.816v1.064h-6.734v-.91Z"/>
            </g>
            <g id="surge_table/subtitle_3">
                <path id="Rectangle 35_7" fill="#F7F7F7" d="M554 48h145v32H554z"/>
                <path id="Sign up for Surge No_7" fill="#323232" d="M614.74 59.242 611.912 69h-1.428l-2.268-7.854L605.864 69l-1.414.014-2.73-9.772h1.358l2.128 8.274 2.352-8.274h1.428l2.24 8.246 2.142-8.246h1.372Zm8.394 5.628c0 .243-.014.5-.042.77h-6.132c.047.756.304 1.349.77 1.778.476.42 1.05.63 1.722.63.551 0 1.008-.126 1.372-.378.374-.261.635-.607.784-1.036h1.372a3.33 3.33 0 0 1-1.232 1.806c-.616.457-1.381.686-2.296.686-.728 0-1.381-.163-1.96-.49a3.499 3.499 0 0 1-1.344-1.386c-.326-.607-.49-1.307-.49-2.1 0-.793.159-1.489.476-2.086a3.315 3.315 0 0 1 1.33-1.372c.579-.327 1.242-.49 1.988-.49.728 0 1.372.159 1.932.476.56.317.99.756 1.288 1.316.308.55.462 1.176.462 1.876Zm-1.316-.266c0-.485-.107-.9-.322-1.246a2.019 2.019 0 0 0-.882-.798 2.63 2.63 0 0 0-1.218-.28c-.644 0-1.194.205-1.652.616-.448.41-.704.98-.77 1.708h4.844Zm9.998.266c0 .243-.014.5-.042.77h-6.132c.047.756.303 1.349.77 1.778.476.42 1.05.63 1.722.63.551 0 1.008-.126 1.372-.378.373-.261.635-.607.784-1.036h1.372a3.33 3.33 0 0 1-1.232 1.806c-.616.457-1.381.686-2.296.686-.728 0-1.381-.163-1.96-.49a3.499 3.499 0 0 1-1.344-1.386c-.327-.607-.49-1.307-.49-2.1 0-.793.159-1.489.476-2.086a3.309 3.309 0 0 1 1.33-1.372c.579-.327 1.241-.49 1.988-.49.728 0 1.372.159 1.932.476.56.317.989.756 1.288 1.316.308.55.462 1.176.462 1.876Zm-1.316-.266c0-.485-.107-.9-.322-1.246a2.03 2.03 0 0 0-.882-.798 2.63 2.63 0 0 0-1.218-.28c-.644 0-1.195.205-1.652.616-.448.41-.705.98-.77 1.708h4.844ZM637.782 69l-3.01-3.388V69h-1.274V58.64h1.274v6.09l2.954-3.402h1.778l-3.612 3.822 3.626 3.85h-1.736Zm6.415-7.574c.066-.859.397-1.53.994-2.016.598-.485 1.372-.728 2.324-.728.635 0 1.181.117 1.638.35.467.224.817.532 1.05.924.243.392.364.835.364 1.33 0 .579-.168 1.078-.504 1.498a2.2 2.2 0 0 1-1.288.812v.07c.607.15 1.088.443 1.442.882.355.439.532 1.013.532 1.722 0 .532-.121 1.013-.364 1.442-.242.42-.606.751-1.092.994-.485.243-1.068.364-1.75.364-.989 0-1.801-.257-2.436-.77-.634-.523-.989-1.26-1.064-2.212h1.232c.066.56.294 1.017.686 1.372.392.355.915.532 1.568.532.654 0 1.148-.168 1.484-.504.346-.345.518-.789.518-1.33 0-.7-.233-1.204-.7-1.512-.466-.308-1.171-.462-2.114-.462h-.322V63.12h.336c.859-.01 1.508-.15 1.946-.42.439-.28.658-.71.658-1.288 0-.495-.163-.891-.49-1.19-.317-.299-.774-.448-1.372-.448-.578 0-1.045.15-1.4.448-.354.299-.564.7-.63 1.204h-1.246Z"/>
            </g>
            <g id="surge_table/subtitle_4">
                <path id="Rectangle 35_8" fill="#F7F7F7" d="M699 48h145v32H699z"/>
                <path id="Sign up for Surge No_8" fill="#323232" d="M759.46 59.242 756.632 69h-1.428l-2.268-7.854L750.584 69l-1.414.014-2.73-9.772h1.358l2.128 8.274 2.352-8.274h1.428l2.24 8.246 2.142-8.246h1.372Zm8.394 5.628c0 .243-.014.5-.042.77h-6.132c.047.756.303 1.349.77 1.778.476.42 1.05.63 1.722.63.551 0 1.008-.126 1.372-.378.373-.261.635-.607.784-1.036h1.372a3.33 3.33 0 0 1-1.232 1.806c-.616.457-1.381.686-2.296.686-.728 0-1.381-.163-1.96-.49a3.499 3.499 0 0 1-1.344-1.386c-.327-.607-.49-1.307-.49-2.1 0-.793.159-1.489.476-2.086a3.309 3.309 0 0 1 1.33-1.372c.579-.327 1.241-.49 1.988-.49.728 0 1.372.159 1.932.476.56.317.989.756 1.288 1.316.308.55.462 1.176.462 1.876Zm-1.316-.266c0-.485-.107-.9-.322-1.246a2.03 2.03 0 0 0-.882-.798 2.63 2.63 0 0 0-1.218-.28c-.644 0-1.195.205-1.652.616-.448.41-.705.98-.77 1.708h4.844Zm9.998.266c0 .243-.014.5-.042.77h-6.132c.046.756.303 1.349.77 1.778.476.42 1.05.63 1.722.63.55 0 1.008-.126 1.372-.378.373-.261.634-.607.784-1.036h1.372a3.336 3.336 0 0 1-1.232 1.806c-.616.457-1.382.686-2.296.686-.728 0-1.382-.163-1.96-.49a3.485 3.485 0 0 1-1.344-1.386c-.327-.607-.49-1.307-.49-2.1 0-.793.158-1.489.476-2.086a3.303 3.303 0 0 1 1.33-1.372c.578-.327 1.241-.49 1.988-.49.728 0 1.372.159 1.932.476.56.317.989.756 1.288 1.316.308.55.462 1.176.462 1.876Zm-1.316-.266c0-.485-.108-.9-.322-1.246a2.03 2.03 0 0 0-.882-.798 2.63 2.63 0 0 0-1.218-.28c-.644 0-1.195.205-1.652.616-.448.41-.705.98-.77 1.708h4.844ZM782.501 69l-3.01-3.388V69h-1.274V58.64h1.274v6.09l2.954-3.402h1.778l-3.612 3.822 3.626 3.85h-1.736Zm6.136-2.254v-.966l4.914-6.804h1.526v6.664h1.4v1.106h-1.4V69h-1.26v-2.254h-5.18Zm5.236-6.44-3.766 5.334h3.766v-5.334Z"/>
            </g>
            <g id="surge_table/subtitle_5">
                <path id="Rectangle 35_9" fill="#F7F7F7" d="M844 48h145v32H844z"/>
            </g>
            <g id="surge_table/subtitle_6">
                <path id="Rectangle 35_10" fill="#F7F7F7" d="M989 48h145v32H989z"/>
            </g>
            <g id="surge_table/subtitle_7">
                <path id="Rectangle 35_11" fill="#F7F7F7" d="M1134 48h146v32h-146z"/>
            </g>
        </g>
        <g id="surge_table/title_6">
            <path id="Rectangle 35_12" fill="#E0E0E0" d="M0 24a8 8 0 0 1 8-8h252v64H0V24Z"/>
            <path id="Sign up for Surge No_9" fill="#323232" d="M84.969 30.168c0 .495-.117.961-.35 1.4-.234.439-.607.798-1.12 1.078-.513.27-1.171.406-1.974.406H79.76V37h-1.596v-9.73h3.36c.746 0 1.376.13 1.89.392.522.252.91.597 1.162 1.036.261.439.392.929.392 1.47Zm-3.444 1.582c.606 0 1.06-.135 1.358-.406.299-.28.448-.672.448-1.176 0-1.064-.602-1.596-1.806-1.596H79.76v3.178h1.764ZM92.245 37l-2.24-3.892h-1.218V37h-1.596v-9.73h3.36c.747 0 1.377.13 1.89.392.523.261.91.611 1.162 1.05.261.439.392.929.392 1.47 0 .635-.187 1.213-.56 1.736-.364.513-.929.863-1.694 1.05L94.149 37h-1.904Zm-3.458-5.166h1.764c.597 0 1.045-.15 1.344-.448.308-.299.462-.7.462-1.204s-.15-.896-.448-1.176c-.299-.29-.751-.434-1.358-.434h-1.764v3.262Zm9.546-3.276v2.856h3.36v1.302h-3.36v2.982h3.78V37h-5.376v-9.744h5.376v1.302h-3.78ZM110.7 31.26v1.344h-5.754V31.26h5.754Zm6.145-3.99c1.036 0 1.941.2 2.716.602a4.15 4.15 0 0 1 1.806 1.708c.429.737.644 1.6.644 2.59 0 .99-.215 1.848-.644 2.576a4.198 4.198 0 0 1-1.806 1.68c-.775.383-1.68.574-2.716.574h-3.178v-9.73h3.178Zm0 8.428c1.139 0 2.011-.308 2.618-.924.607-.616.91-1.484.91-2.604 0-1.13-.303-2.011-.91-2.646-.607-.635-1.479-.952-2.618-.952h-1.582v7.126h1.582Zm9.044-8.428V37h-1.596v-9.73h1.596Zm6.001 9.828c-.653 0-1.241-.112-1.764-.336-.523-.233-.933-.56-1.232-.98-.299-.42-.448-.91-.448-1.47h1.708c.037.42.201.765.49 1.036.299.27.714.406 1.246.406.551 0 .98-.13 1.288-.392.308-.27.462-.616.462-1.036 0-.327-.098-.593-.294-.798a1.853 1.853 0 0 0-.714-.476c-.28-.112-.672-.233-1.176-.364a12.209 12.209 0 0 1-1.554-.504 2.63 2.63 0 0 1-1.008-.812c-.28-.364-.42-.85-.42-1.456 0-.56.14-1.05.42-1.47.28-.42.672-.742 1.176-.966.504-.224 1.087-.336 1.75-.336.943 0 1.713.238 2.31.714.607.467.943 1.11 1.008 1.932h-1.764c-.028-.355-.196-.658-.504-.91s-.714-.378-1.218-.378c-.457 0-.831.117-1.12.35-.289.233-.434.57-.434 1.008 0 .299.089.546.266.742.187.187.42.336.7.448.28.112.663.233 1.148.364.644.177 1.167.355 1.568.532.411.177.756.453 1.036.826.289.364.434.854.434 1.47 0 .495-.135.961-.406 1.4-.261.439-.649.793-1.162 1.064-.504.261-1.101.392-1.792.392Zm11.809-2.086h-4.074l-.7 1.988h-1.666l3.486-9.744h1.848L146.08 37h-1.68l-.7-1.988Zm-.448-1.302-1.582-4.522-1.596 4.522h3.178Zm8.25 3.388c-.653 0-1.241-.112-1.764-.336-.523-.233-.933-.56-1.232-.98-.299-.42-.448-.91-.448-1.47h1.708c.037.42.201.765.49 1.036.299.27.714.406 1.246.406.551 0 .98-.13 1.288-.392.308-.27.462-.616.462-1.036 0-.327-.098-.593-.294-.798a1.853 1.853 0 0 0-.714-.476c-.28-.112-.672-.233-1.176-.364a12.209 12.209 0 0 1-1.554-.504 2.63 2.63 0 0 1-1.008-.812c-.28-.364-.42-.85-.42-1.456 0-.56.14-1.05.42-1.47.28-.42.672-.742 1.176-.966.504-.224 1.087-.336 1.75-.336.943 0 1.713.238 2.31.714.607.467.943 1.11 1.008 1.932h-1.764c-.028-.355-.196-.658-.504-.91s-.714-.378-1.218-.378c-.457 0-.831.117-1.12.35-.289.233-.434.57-.434 1.008 0 .299.089.546.266.742.187.187.42.336.7.448.28.112.663.233 1.148.364.644.177 1.167.355 1.568.532.411.177.756.453 1.036.826.289.364.434.854.434 1.47 0 .495-.135.961-.406 1.4-.261.439-.649.793-1.162 1.064-.504.261-1.101.392-1.792.392Zm12.229-9.828v1.302h-2.59V37h-1.596v-8.428h-2.604V27.27h6.79Zm3.913 1.288v2.856h3.36v1.302h-3.36v2.982h3.78V37h-5.376v-9.744h5.376v1.302h-3.78ZM179.143 37l-2.24-3.892h-1.218V37h-1.596v-9.73h3.36c.747 0 1.377.13 1.89.392.523.261.91.611 1.162 1.05.262.439.392.929.392 1.47 0 .635-.186 1.213-.56 1.736-.364.513-.928.863-1.694 1.05L181.047 37h-1.904Zm-3.458-5.166h1.764c.598 0 1.046-.15 1.344-.448.308-.299.462-.7.462-1.204s-.149-.896-.448-1.176c-.298-.29-.751-.434-1.358-.434h-1.764v3.262Z"/>
        </g>
        <g id="Group 1859">
            <path id="Rectangle 500" fill="#F5333F" d="M260 28h4v52h-4z"/>
            <g id="icons/surge/main_icon">
                <circle id="Ellipse 25" cx="262" cy="16" r="16" fill="#F5333F"/>
                <g id="icons/surge/emergency">
                    <path id="Vector" fill="#fff" d="M268.633 19.428c-.012 2.918-1.472 4.881-3.433 5.888a.102.102 0 0 1-.156-.064.097.097 0 0 1 .008-.064c.116-.368.174-.752.173-1.138-.036-2.708-2.781-3.643-2.646-6.234a.109.109 0 0 0-.007-.057.101.101 0 0 0-.092-.06.104.104 0 0 0-.055.015 4.3 4.3 0 0 0-2.372 3.976.105.105 0 0 1-.01.067.102.102 0 0 1-.174.011 1.647 1.647 0 0 1-.388-.696.103.103 0 0 0-.142-.072.108.108 0 0 0-.045.04c-.397.543-.886 1.373-.886 3.011a3.74 3.74 0 0 0 .173 1.136c.009.02.012.043.007.065a.104.104 0 0 1-.034.056.1.1 0 0 1-.123.006c-1.959-1.008-3.417-2.97-3.431-5.886.071-5.475 5.684-7.324 5.279-12.642a.107.107 0 0 1 .006-.056.113.113 0 0 1 .035-.044.103.103 0 0 1 .108-.007c3.139 1.437 5.161 4.853 4.901 8.301a.103.103 0 0 0 .055.11c.02.01.043.014.065.01a.098.098 0 0 0 .056-.033 3.281 3.281 0 0 0 1.031-1.799.102.102 0 0 1 .078-.089.102.102 0 0 1 .11.045c.815 1.082 1.909 2.738 1.909 6.21v-.006Z"/>
                </g>
            </g>
        </g>
    </g>
</svg>
