<svg xmlns="http://www.w3.org/2000/svg" xml:space="preserve" style="fill-rule:evenodd;clip-rule:evenodd;stroke-linejoin:round;stroke-miterlimit:1.41421" viewBox="0 0 408 123">
    <g transform="translate(-40.81 -40.81)">
        <path d="M40.81 40.81h407.8v122.43H40.81z" style="fill:none"/>
        <clipPath id="a">
            <path d="M40.81 40.81h407.8v122.43H40.81z"/>
        </clipPath>
        <g clip-path="url(#a)">
            <path d="M287.04 86.21c0 5.32-5.03 9.89-13.01 9.89s-12.26-3.53-13.87-5.2l5.2-4.22c1.39 1.85 3.99 3.7 8.32 3.7 4.16 0 5.67-2.14 5.67-3.41 0-1.68-1.62-2.31-4.28-2.77l-3.58-.64c-2.25-.4-10.06-1.85-10.06-8.67 0-5.72 5.49-9.42 12.43-9.42 2.25 0 8.09.35 12.43 5.38l-4.91 4.57c-1.56-3.06-4.51-4.39-7.86-4.39-1.33 0-4.8.4-4.8 3.01 0 1.91 1.73 2.49 5.9 3.24l4.68.87c4.38.77 7.74 3.37 7.74 8.06m82.59-31.8h-7.05v40.81h7.05zm58.87 40.81V82.68c0-4.97.64-7.4 2.72-9.13 1.45-1.21 2.89-1.33 3.64-1.33 4.28 0 5.09 3.58 5.09 6.76v16.24H447V75.11c0-5.67-3.24-9.65-9.37-9.65-1.16 0-6.53.35-9.13 4.28v-3.41h-7.05v28.9h7.05zm-172.92-28.9h-6.99v12.55c0 4.97-.64 7.4-2.72 9.13-1.45 1.21-2.89 1.33-3.64 1.33-4.28 0-5.09-3.58-5.09-6.76V66.32h-7.05v20.12c0 5.67 3.24 9.65 9.37 9.65 1.16 0 6.53-.35 9.13-4.28v3.41h7.05v-28.9zm-6.45 73.44 5.9 3.41c-2.31 3.12-6.53 7.34-14.11 7.34-8.61 0-14.86-5.9-14.86-15.49 0-10.35 7-15.15 14.51-15.15 11.04 0 14.22 8.85 14.22 16.71H233.4c.12 1.45 1.45 7.17 8.15 7.17 4.92 0 7-3.01 7.58-3.99m-15.5-8.27h13.53c-.12-1.44-1.04-6.07-6.47-6.07-5.73 0-6.83 4.92-7.06 6.07m177.35 1.04-4.68-.87c-4.16-.75-5.9-1.33-5.9-3.24 0-2.6 3.47-3.01 4.8-3.01 3.35 0 6.3 1.33 7.86 4.39l4.91-4.57c-4.34-5.03-10.17-5.38-12.43-5.38-6.94 0-12.43 3.7-12.43 9.42 0 6.82 7.8 8.27 10.06 8.67l3.58.64c2.66.46 4.28 1.1 4.28 2.77 0 1.27-1.5 3.41-5.67 3.41-4.34 0-6.94-1.85-8.32-3.7l-5.2 4.22c1.62 1.68 5.9 5.2 13.87 5.2 7.98 0 13.01-4.57 13.01-9.89.01-4.65-3.34-7.25-7.74-8.06m29.89 0-4.68-.87c-4.16-.75-5.9-1.33-5.9-3.24 0-2.6 3.47-3.01 4.8-3.01 3.35 0 6.3 1.33 7.86 4.39l4.91-4.57c-4.34-5.03-10.17-5.38-12.43-5.38-6.94 0-12.43 3.7-12.43 9.42 0 6.82 7.8 8.27 10.06 8.67l3.58.64c2.66.46 4.28 1.1 4.28 2.77 0 1.27-1.5 3.41-5.67 3.41-4.34 0-6.94-1.85-8.32-3.7l-5.2 4.22c1.62 1.68 5.9 5.2 13.87 5.2 7.98 0 13.01-4.57 13.01-9.89 0-4.65-3.35-7.25-7.74-8.06m-122.7-49.68c0-1.68 0-3.12.52-4.74 1.68-5.32 7.23-5.32 8.67-5.32v-7.11h-.58c-1.39 0-6.42.17-8.61 4.74v-4.1h-7.05v28.9h7.05zm30.27 41.99v-4.1h-7.05v28.9h7.05v-12.37c0-1.68 0-3.12.52-4.74 1.68-5.32 7.23-5.32 8.67-5.32v-7.11h-.58c-1.38 0-6.41.18-8.61 4.74m40.81 10.35c-.14 7.74-5.05 15.32-14.86 15.32s-14.71-7.58-14.86-15.32c.14-7.74 5.05-15.32 14.86-15.32s14.71 7.58 14.86 15.32m-7.31 0c0-4.46-2.4-8.86-7.55-8.86s-7.55 4.4-7.55 8.86 2.4 8.86 7.55 8.86 7.55-4.4 7.55-8.86m-102.57-26.36h7.05v40.81h-7.05v-2.77c-.58.69-2.89 3.64-8.04 3.64-6.07 0-12.83-4.22-12.83-14.74 0-10.35 6.3-15.9 13.12-15.9 2.37 0 5.84.87 7.75 3.24zm.18 26.36c0-4.46-2.2-8.86-6.91-8.86-4.72 0-6.91 4.4-6.91 8.86s2.2 8.86 6.91 8.86c4.72 0 6.91-4.4 6.91-8.86m27.24-39.97v-5.84c-.87.23-1.91.35-2.89.35-.29 0-1.79 0-2.6-.87-.64-.69-.69-1.97-.69-3.06V71.23h6.19v-4.91h-6.19V56.03h-7.05v10.29h-4.22v4.91h4.22v17.23c0 4.74 1.97 7.63 8.15 7.63 2.36 0 4.17-.63 5.08-.87m41.89-2.21c-1.91 1.5-4.97 3.08-8.5 3.08-6.59 0-10.52-4.12-10.52-8.98 0-6.3 4.8-8.79 10.29-9.77 4.34-.81 7.05-1.5 8.9-2.14 0-2.2-.64-4.34-4.97-4.34-5.26 0-5.84 2.83-5.84 4.34l-7.05-.4c.12-1.91.52-9.35 12.66-9.35 8.5 0 12.14 3.17 12.14 8.25v16.88c0 2.18.12 2.82 1.25 4.64h-8.19zm.18-8.26v-3.87c-1.16.58-2.83 1.21-5.49 1.62-3.18.46-6.36 1.1-6.36 3.99 0 1.91 1.27 3.53 4.74 3.53 3.18-.01 7.11-1.63 7.11-5.27m50.49 11.34c-6.59 0-10.52-4.12-10.52-8.98 0-6.3 4.8-8.79 10.29-9.77 4.34-.81 7.05-1.5 8.9-2.14 0-2.2-.64-4.34-4.97-4.34-5.26 0-5.84 2.83-5.84 4.34l-7.05-.4c.12-1.91.52-9.35 12.66-9.35 8.5 0 12.14 3.17 12.14 8.25v16.88c0 2.18.12 2.82 1.25 4.64h-8.19l-.17-2.21c-1.91 1.51-4.97 3.08-8.5 3.08m1.56-6.08c3.18 0 7.11-1.62 7.11-5.26v-3.87c-1.16.58-2.83 1.21-5.49 1.62-3.18.46-6.36 1.1-6.36 3.99 0 1.9 1.27 3.52 4.74 3.52m-17.15-35.6h-7.05v6.82h7.05zm0 11.91h-7.05v28.9h7.05zM212.12 54.41l13.82 40.81h-8.21l-2.37-7.98H200.1l-2.37 7.98h-8.21l13.82-40.81zm1.21 26.13-5.61-18.6-5.61 18.6zm2.66 52.45 9.08 16.65h-8.73l-8.04-15.15h-6.88v15.15h-7.57v-40.81h16.71c8.04 0 13.47 5.26 13.47 12.95 0 3.93-1.57 9.08-8.04 11.21m.29-11.15c0-4.31-3.01-6.19-7.92-6.19h-6.94v12.49h5.9c5.49 0 8.96-1.59 8.96-6.3m104.35 21.5c-9.08 0-11.33-8.89-11.33-14.39 0-9 4.74-14.05 11.39-14.05 4.51 0 8.27 3.1 8.73 7.51l7.57-1.95c-1.73-5.79-6.07-12.5-16.59-12.5-14.22 0-19.37 11.87-19.37 20.87 0 15.14 9.42 21.68 19.08 21.68 11.74 0 16.3-8.89 17.63-12.33l-7.23-2.98c-1.2 4.13-4.61 8.14-9.88 8.14" style="fill-rule:nonzero" transform="translate(.81 .81)"/>
            <path d="M163.24 81.62h-40.8V40.81H81.62v40.81H40.81v40.81h40.81v40.81h40.82v-40.81h40.8z" style="fill:#e42313;fill-rule:nonzero" transform="translate(.81 .81)"/>
        </g>
    </g>
</svg>
