<svg xmlns="http://www.w3.org/2000/svg" xml:space="preserve" id="Layer_1" width="1480" height="350" x="0" y="0" version="1.1">
    <style id="style70" type="text/css">
        .st0{fill:#f5333f}.st2{fill:#ef3741}
    </style>
    <g id="g82" transform="translate(-9.663 .392)">
        <path id="path72" d="M200.62 75.14c0-10.71-8.71-19.41-19.41-19.41-10.71 0-19.41 8.7-19.41 19.41s8.7 19.42 19.41 19.42c10.7 0 19.41-8.71 19.41-19.42" class="st0" style="fill:#f5333f"/>
        <path id="path74" d="M117.97 242.94c-10.71 0-19.42 8.71-19.42 19.42 0 10.7 8.71 19.4 19.42 19.4 10.7 0 19.41-8.7 19.41-19.4 0-10.71-8.71-19.42-19.41-19.42" class="st0" style="fill:#f5333f"/>
        <path id="path76" d="M181.21 133.42c-14.66 0-26.53 11.89-26.53 26.55 0 14.65 11.88 26.53 26.53 26.53 14.66 0 26.53-11.89 26.53-26.53.01-14.66-11.87-26.55-26.53-26.55" class="st0" style="fill:#f5333f"/>
        <path id="path78" d="M244.46 242.94c-10.7 0-19.41 8.71-19.41 19.42 0 10.7 8.7 19.4 19.41 19.4 10.7 0 19.41-8.7 19.41-19.4 0-10.71-8.72-19.42-19.41-19.42" class="st0" style="fill:#f5333f"/>
        <path id="path80" d="M244.46 291.08c-15.84 0-28.73-12.89-28.73-28.73 0-8.77 3.97-16.63 10.19-21.9l-27.41-45.78c-5.21 2.6-11.06 4.1-17.29 4.1s-12.08-1.5-17.3-4.1l-27.41 45.78c6.23 5.27 10.18 13.13 10.18 21.9 0 15.84-12.88 28.73-28.72 28.73s-28.73-12.89-28.73-28.73 12.89-28.73 28.73-28.73c3.72 0 7.28.74 10.55 2.04l27.6-46.11c-8.39-7.12-13.72-17.72-13.72-29.58 0-19.86 14.92-36.21 34.16-38.51v-18c-13.63-2.23-24.07-14.06-24.07-28.31 0-15.84 12.89-28.73 28.73-28.73s28.72 12.89 28.72 28.73c0 14.25-10.44 26.08-24.06 28.31v18c19.25 2.31 34.16 18.65 34.16 38.51 0 11.87-5.34 22.47-13.73 29.58l27.61 46.11c3.27-1.3 6.83-2.04 10.55-2.04 15.84 0 28.72 12.89 28.72 28.73s-12.89 28.73-28.73 28.73M58.18 160.12c0-20.73 13-38.01 34.75-38.01 15.85 0 29.16 8.45 31.09 24.8h-12.4c-1.21-9.54-9.54-14.43-18.69-14.43-15.56 0-22.05 13.71-22.05 27.64s6.49 27.64 22.05 27.64c13 .21 20.11-7.62 20.32-19.91h-19.3v-9.66h30.89v38.21h-8.13l-1.93-8.53c-6.81 7.72-13 10.26-21.84 10.26-21.76 0-34.76-17.28-34.76-38.01M179.98 4.71c-93.56 0-169.42 75.85-169.42 169.43 0 93.56 75.86 169.42 169.42 169.42 93.57 0 169.42-75.86 169.42-169.42 0-93.58-75.84-169.43-169.42-169.43" class="st0" style="fill:#f5333f"/>
    </g>
    <path id="polyline84" d="M461.97 6.09v338.93h-1.85V6.09" style="fill:#bdbec0;stroke:#bdbec0;stroke-width:2;stroke-miterlimit:10" transform="translate(-9.663 .392)"/>
    <g id="g92" transform="translate(-9.663 .392)">
        <path id="polygon86" d="M631.54 254.71v-56l.01.02h-56.01v-48.01h56.01l-.01-.03V94.67h48.01v56.02l-.01.02h56.01v48.01h-56.01l.01-.01v56z" class="st2" style="fill:#ef3741"/>
        <path id="path88" d="M809.82 173.84c0-37.3 30.24-67.54 67.54-67.54 8.31 0 16.26 1.5 23.6 4.25-13.82-10.94-31.27-17.47-50.25-17.47-44.76 0-81.04 36.29-81.04 81.05s36.28 81.04 81.04 81.04c19.62 0 37.61-6.98 51.63-18.57a67.5 67.5 0 0 1-24.98 4.77c-37.3.01-67.54-30.23-67.54-67.53" class="st2" style="fill:#ef3741"/>
        <path id="path90" d="M1424.63 255.21c13.59 0 25.9-2.39 36.95-7.17s20.3-11.72 27.77-20.83l-23.29-21.5c-10.6 12.4-23.74 18.59-39.42 18.59-9.71 0-18.37-2.12-25.98-6.38-7.62-4.26-13.56-10.19-17.8-17.8q-6.39-11.43-6.39-25.98 0-14.565 6.39-25.98c4.25-7.61 10.19-13.55 17.8-17.8 7.61-4.26 16.27-6.38 25.98-6.38 15.67 0 28.81 6.12 39.42 18.37l23.29-21.5c-7.47-8.96-16.68-15.82-27.66-20.6q-16.455-7.17-36.84-7.17-24.195 0-43.56 10.41c-12.92 6.94-23.07 16.58-30.46 28.89-7.39 12.32-11.08 26.25-11.08 41.77s3.7 29.45 11.08 41.77c7.39 12.32 17.54 21.95 30.46 28.89 12.92 6.93 27.36 10.4 43.34 10.4m-144.9-102.58c0 8.67-2.84 15.38-8.51 20.16-5.68 4.78-13.96 7.17-24.86 7.17h-29.56v-54.65h29.56c10.9 0 19.19 2.35 24.86 7.05 5.67 4.71 8.51 11.46 8.51 20.27m39.64 99.89-35.16-50.39c10.3-4.48 18.25-10.94 23.85-19.37q8.4-12.66 8.4-30.12c0-11.64-2.76-21.72-8.28-30.23-5.53-8.51-13.41-15.08-23.63-19.71-10.23-4.63-22.28-6.94-36.17-6.94h-67.86v156.78h36.28v-43.67h33.37l30.23 43.67h38.97zm-170.21-127.66V95.75h-118.48v156.78h36.28v-57.11h72.56v-29.11h-72.56v-41.43h82.2zM957.23 252.52h36.28V95.75h-36.28z" style="fill:#333132"/>
    </g>
</svg>
