<svg xmlns="http://www.w3.org/2000/svg" viewBox="0 0 374.53 81.17">
    <defs>
        <clipPath id="clip-path">
            <path d="M80.91 40.7A40.33 40.33 0 1 1 40.58.37 40.33 40.33 0 0 1 80.91 40.7" class="cls-1"/>
        </clipPath>
        <clipPath id="clip-path-2">
            <path d="M75.67 20.27a39.48 39.48 0 1 0 5.5 20.32 40.5 40.5 0 0 0-5.5-20.32" class="cls-1"/>
        </clipPath>
        <style>
            .cls-1{fill:none}.cls-2,.cls-6{fill:#0068ff}.cls-3{fill:#a5acaf}.cls-6{opacity:.3}
        </style>
    </defs>
    <g id="Layer_2" data-name="Layer 2">
        <g id="Layer_1-2" data-name="Layer 1">
            <path d="M120.08 43.72c-3.17 2.77-6.59 3.17-10.71 3.17h-4.06v11.5h-9V21.7h12c3.77 0 8.28.15 11.31 2.67A12.51 12.51 0 0 1 124 34.1c0 3.37-1.29 7.34-3.87 9.62m-11.3-13.79h-3.47v8.73h3.81c3.08 0 5.85-.7 5.85-4.42s-3.12-4.31-6.19-4.31M141.22 58.39h-12.84V21.7h12.15c6.64 0 12.05 1.09 16.21 6.84A19.4 19.4 0 0 1 160.12 40c0 12-6.9 18.44-18.9 18.44m.59-28.46h-4.06v20.18h4c6.39 0 9-4.12 9-10.07s-2.68-10.16-8.93-10.16M183.52 59.09a19 19 0 1 1 16.07-29.46 15.5 15.5 0 0 1 2.48 6h-9.82a9.5 9.5 0 0 0-8.88-6.4c-5.94 0-9.81 5.06-9.81 10.72s3.87 10.9 9.87 10.9c4.11 0 7.19-2.57 8.82-6.19h9.82a18.82 18.82 0 0 1-18.55 14.43M217.98 16.09h3.95v47.67h-3.95z" class="cls-2"/>
            <path d="M250.76 51.4a11.5 11.5 0 1 1-.12-23c4.36 0 9.19 2.68 10.71 6.92h-4.89a7.07 7.07 0 0 0-5.91-3.1A7.59 7.59 0 0 0 243 40a7.8 7.8 0 0 0 .63 3 7.45 7.45 0 0 0 7.15 4.66 7.27 7.27 0 0 0 6.54-4.06h-9.25v-3.89h14.4v.48c0 6.29-5.51 11.21-11.69 11.21M269.47 50.95V28.89h4.08v18.25h6.74v3.81zM326.49 38.91A4.52 4.52 0 0 0 329 34.7a5.75 5.75 0 0 0-1.87-4.11c-1.8-1.61-4.12-1.7-6.39-1.7h-4.77V51h5.9a10.4 10.4 0 0 0 5.7-1.32 6.21 6.21 0 0 0 2.74-5.25 5.29 5.29 0 0 0-3.78-5.48M320 32.71h1.7c1.58 0 3.16.53 3.16 2.38s-1.73 2.39-3.31 2.39H320Zm2.05 14.43H320v-5.85h2.14c1.91 0 4 .72 4 3s-2.18 2.89-4.12 2.89M347.9 28.89h-3.19L335.52 51H340l2.36-5.7h7.9l2.36 5.7h4.5Zm-4.15 12.52 2.51-6.77h.05l2.51 6.77ZM363.71 50.95V28.89h4.08v18.25h6.74v3.81zM297.14 28.44A11.48 11.48 0 1 0 308.68 40a11.51 11.51 0 0 0-11.54-11.54m0 19.15a7.67 7.67 0 1 1 7.45-7.61 7.57 7.57 0 0 1-7.45 7.64" class="cls-3"/>
            <g style="clip-path:url(#clip-path)">
                <g style="clip-path:url(#clip-path-2)">
                    <path d="M59.86 29.91a86 86 0 0 0-15.09-18.83l-4.19-3.77-4.18 3.77a86 86 0 0 0-15.09 18.83 86.1 86.1 0 0 0-8.76 22.48l-1.17 5.51 5.35 1.74a86 86 0 0 0 23.85 3.65 86 86 0 0 0 23.85-3.65l5.36-1.74-1.17-5.51a86.1 86.1 0 0 0-8.76-22.48m-16 20.77c-1.07.07-2.16.11-3.27.11a70.5 70.5 0 0 1-14.16-1.58 72 72 0 0 1 4.94-11.64c.26-.47.51-.94.79-1.41a71.3 71.3 0 0 1 8.43-11.48A70.7 70.7 0 0 1 49 36.16a71.2 71.2 0 0 1 5.72 13.06 72 72 0 0 1-10.87 1.46Z" class="cls-1"/>
                    <path d="M40.58 24.68a71.3 71.3 0 0 0-8.43 11.48c-.28.47-.53.94-.79 1.41a72 72 0 0 0-4.94 11.64 70.5 70.5 0 0 0 14.16 1.58c1.11 0 2.2 0 3.27-.11a72 72 0 0 0 10.9-1.46A71.2 71.2 0 0 0 49 36.16a70.7 70.7 0 0 0-8.42-11.48" class="cls-2"/>
                    <path d="M3.29 30.83H50v46.54H3.29z" class="cls-1"/>
                    <path d="M40.58 50.79c1.11 0 2.2 0 3.27-.11a91.6 91.6 0 0 0-12.49-13.11 72 72 0 0 0-4.94 11.64 70.5 70.5 0 0 0 14.16 1.58" class="cls-1"/>
                    <path d="M26.42 49.21a70.5 70.5 0 0 0 14.16 1.58c1.11 0 2.2 0 3.27-.11a91 91 0 0 1 7.8 11.78 84.6 84.6 0 0 0 12.78-2.82l5.36-1.74-1.17-5.51a86.1 86.1 0 0 0-8.76-22.48 86 86 0 0 0-15.09-18.83l-4.19-3.77-4.18 3.77a86 86 0 0 0-15.09 18.83l-.06.1a90 90 0 0 1 10.11 7.56 72 72 0 0 0-4.94 11.64" class="cls-1"/>
                    <path d="M75.67 20.27a40.51 40.51 0 0 0-70.22.06c-.24.41-.45.84-.67 1.26A91 91 0 0 1 21.25 30l.06-.1A86 86 0 0 1 36.4 11.08l4.18-3.77 4.19 3.77a86 86 0 0 1 15.09 18.83 86.1 86.1 0 0 1 8.76 22.48l1.17 5.51-5.36 1.74a84.6 84.6 0 0 1-12.78 2.82 91 91 0 0 1 6.57 14.67 41.1 41.1 0 0 0 23-36.54 40.2 40.2 0 0 0-5.55-20.32" class="cls-2"/>
                    <path d="m11.38 57.9 5.35 1.74a86 86 0 0 0 23.85 3.65 78.6 78.6 0 0 0 11.07-.83 91 91 0 0 0-7.8-11.78c-1.07.07-2.16.11-3.27.11a70.5 70.5 0 0 1-14.16-1.58 72 72 0 0 1 4.94-11.64A90 90 0 0 0 21.25 30a86.2 86.2 0 0 0-8.7 22.38Z" class="cls-6"/>
                    <path d="M40.58 63.29a86 86 0 0 1-23.85-3.65l-5.35-1.74 1.17-5.51A86.2 86.2 0 0 1 21.25 30a91 91 0 0 0-16.47-8.41 40.54 40.54 0 0 0 53.44 55.54 91 91 0 0 0-6.57-14.67 78.6 78.6 0 0 1-11.07.83" class="cls-2"/>
                    <path d="M40.58 63.29a86 86 0 0 1-23.85-3.65l-5.35-1.74 1.17-5.51A86.2 86.2 0 0 1 21.25 30a91 91 0 0 0-16.47-8.41 40.54 40.54 0 0 0 53.44 55.54 91 91 0 0 0-6.57-14.67 78.6 78.6 0 0 1-11.07.83" class="cls-6"/>
                </g>
            </g>
        </g>
    </g>
</svg>
