<svg xmlns="http://www.w3.org/2000/svg" width="790.423" height="255.005" version="1.0">
    <path d="M174.919 69.183c1.401.89 3.04 1.402 5.263 1.402 2.941 0 5.368-1.504 5.368-4.888 0-4.685-10.94-5.266-10.94-11.521 0-3.829 3.35-6.222 7.556-6.222 1.162 0 3.041.17 4.684.785l-.377 2.155c-1.059-.582-2.736-.89-4.342-.89-2.46 0-5.161 1.026-5.161 4.103 0 4.787 10.938 4.82 10.938 11.795 0 4.82-4.135 6.734-7.828 6.734-2.325 0-4.136-.479-5.402-1.026zM206.437 57.115c-1.161-.512-2.563-.888-3.726-.888-4.205 0-6.565 3.043-6.565 7.281 0 3.967 2.394 7.284 6.325 7.284 1.368 0 2.634-.31 3.933-.788l.205 2.018c-1.471.511-2.84.614-4.479.614-5.608 0-8.342-4.274-8.342-9.128 0-5.368 3.453-9.128 8.616-9.128 2.084 0 3.588.479 4.205.683zM212.933 46.585h2.153v11.146h.07c.923-1.913 2.871-3.35 5.434-3.35 4.685 0 5.949 3.112 5.949 7.419v10.426h-2.154V61.833c0-3.008-.58-5.606-4.135-5.606-3.829 0-5.164 3.624-5.164 6.667v9.332h-2.153zM252.522 72.226h-2.598l-4.752-15.076h-.069l-4.752 15.076h-2.598l-5.606-17.436h2.358l4.58 15.078h.07l4.854-15.078h2.598l4.616 15.078h.067l4.82-15.078h2.154zM274.504 62.278c0-3.043-1.23-6.051-4.443-6.051-3.18 0-5.13 3.179-5.13 6.05zm1.061 9.401c-1.504.616-3.453.957-5.06.957-5.778 0-7.932-3.898-7.932-9.128 0-5.332 2.941-9.128 7.35-9.128 4.924 0 6.941 3.967 6.941 8.65v1.094h-11.932c0 3.693 1.984 6.668 5.744 6.668 1.572 0 3.863-.65 4.889-1.3zM283.632 54.79h2.153v17.436h-2.153zm2.153-4.65h-2.153v-2.87h2.153zM292.283 70.415l10.496-13.779h-10.086V54.79h12.58v1.846L294.779 70.38h10.494v1.846h-12.99zM322.365 62.278c0-3.043-1.23-6.051-4.443-6.051-3.181 0-5.13 3.179-5.13 6.05zm1.06 9.401c-1.503.616-3.452.957-5.06.957-5.778 0-7.931-3.898-7.931-9.128 0-5.332 2.941-9.128 7.35-9.128 4.923 0 6.941 3.967 6.941 8.65v1.094h-11.933c0 3.693 1.985 6.668 5.744 6.668 1.573 0 3.864-.65 4.89-1.3zM331.494 58.687c0-1.913 0-2.631-.135-3.897h2.153v3.35h.067c.788-1.946 2.258-3.76 4.48-3.76.512 0 1.128.103 1.504.205v2.258c-.445-.138-1.025-.207-1.573-.207-3.419 0-4.342 3.831-4.342 6.974v8.616h-2.154zM345.545 54.79h2.153v17.436h-2.153zm2.153-4.65h-2.153v-2.87h2.153zM354.468 69.697c1.3.65 2.872 1.095 4.547 1.095 2.051 0 3.862-1.13 3.862-3.113 0-4.135-8.376-3.486-8.376-8.547 0-3.452 2.803-4.752 5.675-4.752.924 0 2.77.205 4.307.788l-.204 1.88c-1.128-.514-2.666-.821-3.862-.821-2.222 0-3.762.683-3.762 2.905 0 3.248 8.58 2.839 8.58 8.547 0 3.693-3.452 4.957-6.084 4.957-1.675 0-3.35-.205-4.887-.819zM383.115 57.115c-1.162-.512-2.563-.888-3.727-.888-4.204 0-6.564 3.043-6.564 7.281 0 3.967 2.393 7.284 6.324 7.284 1.368 0 2.634-.31 3.933-.788l.205 2.018c-1.47.511-2.839.614-4.478.614-5.609 0-8.343-4.274-8.343-9.128 0-5.368 3.453-9.128 8.616-9.128 2.085 0 3.589.479 4.205.683zM389.61 46.585h2.154v11.146h.07c.922-1.913 2.87-3.35 5.434-3.35 4.685 0 5.948 3.112 5.948 7.419v10.426h-2.153V61.833c0-3.008-.58-5.606-4.136-5.606-3.828 0-5.163 3.624-5.163 6.667v9.332h-2.153zM421.917 62.278c0-3.043-1.23-6.051-4.443-6.051-3.181 0-5.13 3.179-5.13 6.05zm1.06 9.401c-1.503.616-3.452.957-5.06.957-5.778 0-7.931-3.898-7.931-9.128 0-5.332 2.941-9.128 7.35-9.128 4.923 0 6.941 3.967 6.941 8.65v1.094h-11.933c0 3.693 1.985 6.668 5.744 6.668 1.573 0 3.864-.65 4.89-1.3zM442.43 48.363h11.69v2.05h-9.332v8.515h8.854v2.05h-8.854v9.197h9.744v2.051H442.43zM461.951 54.79h2.154v17.436h-2.154zm2.154-4.65h-2.154v-2.87h2.154zM478.703 70.792c3.828 0 5.16-4.105 5.16-7.284s-1.332-7.281-5.16-7.281c-4.103 0-5.164 3.897-5.164 7.281 0 3.386 1.061 7.284 5.164 7.284m7.316 1.434h-2.155v-2.77h-.067c-1.163 2.223-2.941 3.18-5.437 3.18-4.785 0-7.179-3.964-7.179-9.128 0-5.3 2.051-9.128 7.179-9.128 3.419 0 5.127 2.497 5.437 3.35h.067V46.586h2.155zM500.242 70.38c3.895 0 5.298-3.693 5.298-6.872 0-4.204-1.23-7.281-5.162-7.281-4.1 0-5.162 3.897-5.162 7.281 0 3.42 1.367 6.872 5.026 6.872m7.453.412c0 4.854-2.187 8.818-8.169 8.818-2.291 0-4.378-.65-5.266-.923l.168-2.154c1.335.686 3.249 1.233 5.13 1.233 5.54 0 6.019-4.036 6.019-8.959h-.069c-1.161 2.53-3.08 3.42-5.298 3.42-5.577 0-7.355-4.855-7.355-8.719 0-5.3 2.052-9.128 7.182-9.128 2.323 0 3.827.307 5.435 2.394h.068V54.79h2.155zM526.188 62.278c0-3.043-1.23-6.051-4.442-6.051-3.18 0-5.13 3.179-5.13 6.05zm1.062 9.401c-1.504.616-3.454.957-5.062.957-5.777 0-7.927-3.898-7.927-9.128 0-5.332 2.938-9.128 7.348-9.128 4.92 0 6.94 3.967 6.94 8.65v1.094h-11.933c0 3.693 1.986 6.668 5.745 6.668 1.572 0 3.864-.65 4.889-1.3zM535.319 58.894c0-1.335 0-2.7-.137-4.104h2.087v3.112h.068c.715-1.573 2.014-3.522 5.64-3.522 4.31 0 5.946 2.872 5.946 6.701v11.145h-2.15V61.628c0-3.281-1.162-5.401-4.137-5.401-3.932 0-5.162 3.453-5.162 6.358v9.641h-2.155zM563.798 70.792c3.76 0 5.777-3.248 5.777-7.284 0-4.033-2.018-7.281-5.777-7.281-3.763 0-5.781 3.248-5.781 7.281 0 4.036 2.018 7.284 5.781 7.284m0-16.412c5.64 0 8.137 4.376 8.137 9.128s-2.496 9.128-8.137 9.128c-5.64 0-8.137-4.376-8.137-9.128s2.497-9.128 8.137-9.128M577.334 69.697c1.299.65 2.875 1.095 4.547 1.095 2.05 0 3.864-1.13 3.864-3.113 0-4.135-8.374-3.486-8.374-8.547 0-3.452 2.802-4.752 5.672-4.752.925 0 2.77.205 4.305.788l-.2 1.88c-1.13-.514-2.665-.821-3.864-.821-2.223 0-3.763.683-3.763 2.905 0 3.248 8.584 2.839 8.584 8.547 0 3.693-3.454 4.957-6.087 4.957-1.677 0-3.349-.205-4.889-.819zM593.299 69.697c1.298.65 2.874 1.095 4.547 1.095 2.05 0 3.863-1.13 3.863-3.113 0-4.135-8.378-3.486-8.378-8.547 0-3.452 2.806-4.752 5.676-4.752.925 0 2.77.205 4.306.788l-.205 1.88c-1.126-.514-2.66-.821-3.86-.821-2.223 0-3.763.683-3.763 2.905 0 3.248 8.584 2.839 8.584 8.547 0 3.693-3.453 4.957-6.087 4.957-1.676 0-3.348-.205-4.888-.819zM621.232 62.278c0-3.043-1.235-6.051-4.447-6.051-3.18 0-5.13 3.179-5.13 6.05zm1.057 9.401c-1.504.616-3.45.957-5.058.957-5.777 0-7.932-3.898-7.932-9.128 0-5.332 2.94-9.128 7.35-9.128 4.924 0 6.943 3.967 6.943 8.65v1.094h-11.937c0 3.693 1.986 6.668 5.745 6.668 1.572 0 3.864-.65 4.889-1.3zM630.357 58.894c0-1.335 0-2.7-.136-4.104h2.086v3.112h.069c.715-1.573 2.014-3.522 5.64-3.522 4.306 0 5.946 2.872 5.946 6.701v11.145h-2.15V61.628c0-3.281-1.163-5.401-4.138-5.401-3.931 0-5.162 3.453-5.162 6.358v9.641h-2.155zM650.7 69.697c1.299.65 2.87 1.095 4.547 1.095 2.05 0 3.859-1.13 3.859-3.113 0-4.135-8.374-3.486-8.374-8.547 0-3.452 2.802-4.752 5.677-4.752.92 0 2.77.205 4.305.788l-.205 1.88c-1.125-.514-2.665-.821-3.863-.821-2.22 0-3.759.683-3.759 2.905 0 3.248 8.584 2.839 8.584 8.547 0 3.693-3.459 4.957-6.087 4.957-1.677 0-3.354-.205-4.894-.819zM679.348 57.115c-1.161-.512-2.565-.888-3.726-.888-4.206 0-6.566 3.043-6.566 7.281 0 3.967 2.392 7.284 6.324 7.284 1.372 0 2.633-.31 3.937-.788l.2 2.018c-1.467.511-2.838.614-4.474.614-5.608 0-8.347-4.274-8.347-9.128 0-5.368 3.454-9.128 8.62-9.128 2.082 0 3.586.479 4.2.683zM685.845 46.585h2.15v11.146h.07c.924-1.913 2.874-3.35 5.434-3.35 4.684 0 5.95 3.112 5.95 7.419v10.426h-2.15V61.833c0-3.008-.583-5.606-4.137-5.606-3.831 0-5.166 3.624-5.166 6.667v9.332h-2.15zM717.327 63.44h-.61c-3.731 0-8.169.377-8.169 4.206 0 2.289 1.636 3.146 3.617 3.146 5.062 0 5.162-4.412 5.162-6.292zm.206 5.983h-.064c-.957 2.085-3.39 3.213-5.54 3.213-4.957 0-5.745-3.35-5.745-4.923 0-5.844 6.223-6.118 10.733-6.118h.41v-.89c0-2.974-1.056-4.478-3.963-4.478-1.809 0-3.518.41-5.13 1.435v-2.085c1.335-.65 3.59-1.197 5.13-1.197 4.305 0 6.119 1.95 6.119 6.496v7.693c0 1.402 0 2.46.173 3.657h-2.123zM728.745 56.636h-3.517V54.79h3.517v-1.264c0-3.657.137-7.35 4.62-7.35.679 0 1.604.102 2.014.343l-.137 1.88c-.447-.24-1.094-.376-1.709-.376-2.943 0-2.633 3.179-2.633 5.263v1.504h3.932v1.846H730.9v15.59h-2.155zM748.846 56.636h-3.964V67.92c0 1.572.584 2.872 2.329 2.872.82 0 1.366-.172 1.977-.412l.141 1.777c-.515.205-1.572.479-2.633.479-3.827 0-3.969-2.632-3.969-5.811V56.636h-3.417V54.79h3.417v-4.205l2.155-.752v4.957h3.964zM191.67 98.186c-1.504-.786-3.66-1.026-5.334-1.026-6.187 0-9.676 4.376-9.676 10.291 0 6.016 3.386 10.29 9.676 10.29 1.572 0 3.966-.206 5.334-1.026l.136 2.051c-1.3.787-3.965 1.025-5.47 1.025-7.522 0-12.033-4.956-12.033-12.34 0-7.248 4.649-12.342 12.033-12.342 1.401 0 4.24.24 5.47.89zM206.473 117.947c3.762 0 5.777-3.248 5.777-7.283 0-4.033-2.015-7.281-5.777-7.281-3.76 0-5.778 3.248-5.778 7.28 0 4.036 2.018 7.284 5.778 7.284m0-16.411c5.641 0 8.137 4.376 8.137 9.128s-2.496 9.127-8.137 9.127c-5.64 0-8.136-4.376-8.136-9.127s2.496-9.128 8.136-9.128M221.344 106.05c0-1.335 0-2.7-.135-4.105h2.084v3.113h.07c.716-1.573 2.015-3.522 5.638-3.522 4.31 0 5.95 2.872 5.95 6.7v11.146h-2.154v-10.598c0-3.281-1.162-5.401-4.136-5.401-3.933 0-5.163 3.452-5.163 6.358v9.641h-2.154zM244.49 103.792h-3.522v-1.847h3.521v-1.263c0-3.658.136-7.35 4.614-7.35.685 0 1.609.102 2.018.34l-.136 1.882c-.444-.24-1.094-.376-1.71-.376-2.94 0-2.632 3.18-2.632 5.264v1.503h3.93v1.847h-3.93v15.59h-2.154zM264.113 95.211h2.7l-4.306 4.924h-1.573zm3.588 14.222c0-3.043-1.23-6.05-4.442-6.05-3.182 0-5.13 3.179-5.13 6.05zm1.061 9.402c-1.504.616-3.452.956-5.06.956-5.778 0-7.932-3.897-7.932-9.127 0-5.333 2.941-9.128 7.35-9.128 4.924 0 6.941 3.967 6.941 8.65v1.094H258.13c0 3.693 1.984 6.667 5.743 6.667 1.573 0 3.865-.65 4.89-1.3zM283.325 117.947c3.828 0 5.161-4.104 5.161-7.283s-1.333-7.281-5.161-7.281c-4.102 0-5.164 3.897-5.164 7.28 0 3.387 1.062 7.284 5.164 7.284m7.316 1.435h-2.155v-2.77h-.067c-1.164 2.223-2.941 3.18-5.437 3.18-4.785 0-7.179-3.965-7.179-9.128 0-5.3 2.051-9.128 7.18-9.128 3.419 0 5.127 2.496 5.436 3.35h.067V93.741h2.155zM305.546 95.211h2.701l-4.309 4.924h-1.57zm3.589 14.222c0-3.043-1.23-6.05-4.443-6.05-3.18 0-5.13 3.179-5.13 6.05zm1.06 9.402c-1.503.616-3.452.956-5.06.956-5.777 0-7.931-3.897-7.931-9.127 0-5.333 2.941-9.128 7.35-9.128 4.923 0 6.941 3.967 6.941 8.65v1.094h-11.933c0 3.693 1.985 6.667 5.744 6.667 1.573 0 3.864-.65 4.89-1.3zM318.265 105.843c0-1.913 0-2.632-.136-3.898h2.153v3.353h.067c.788-1.949 2.258-3.762 4.48-3.762.512 0 1.128.102 1.504.205v2.257c-.445-.137-1.025-.206-1.572-.206-3.42 0-4.343 3.829-4.343 6.974v8.616h-2.153zM342.128 110.597h-.616c-3.726 0-8.171.376-8.171 4.204 0 2.29 1.642 3.146 3.624 3.146 5.058 0 5.163-4.411 5.163-6.291zm.205 5.982h-.07c-.956 2.085-3.383 3.212-5.538 3.212-4.957 0-5.742-3.35-5.742-4.923 0-5.844 6.222-6.118 10.734-6.118h.411v-.89c0-2.974-1.061-4.477-3.966-4.477-1.814 0-3.522.409-5.128 1.434v-2.084c1.333-.65 3.588-1.197 5.128-1.197 4.307 0 6.12 1.949 6.12 6.496v7.693c0 1.401 0 2.46.17 3.657h-2.12zM359.596 103.792h-3.966v11.283c0 1.573.582 2.872 2.324 2.872.821 0 1.368-.171 1.985-.412l.135 1.778c-.511.205-1.573.478-2.632.478-3.828 0-3.966-2.632-3.966-5.81v-10.19h-3.42v-1.846h3.42v-4.204l2.154-.752v4.956h3.966zM366.125 101.945h2.153v17.437h-2.153zm2.153-4.649h-2.153v-2.87h2.153zM383.183 117.947c3.762 0 5.778-3.248 5.778-7.283 0-4.033-2.016-7.281-5.778-7.281-3.76 0-5.777 3.248-5.777 7.28 0 4.036 2.018 7.284 5.777 7.284m0-16.411c5.642 0 8.139 4.376 8.139 9.128s-2.497 9.127-8.139 9.127c-5.639 0-8.135-4.376-8.135-9.127s2.496-9.128 8.135-9.128M398.055 106.05c0-1.335 0-2.7-.135-4.105h2.084v3.113h.07c.715-1.573 2.014-3.522 5.638-3.522 4.31 0 5.949 2.872 5.949 6.7v11.146h-2.153v-10.598c0-3.281-1.161-5.401-4.136-5.401-3.933 0-5.163 3.452-5.163 6.358v9.641h-2.154zM430.228 116.852c1.3.65 2.872 1.095 4.547 1.095 2.051 0 3.862-1.13 3.862-3.112 0-4.135-8.376-3.486-8.376-8.547 0-3.453 2.803-4.752 5.675-4.752.924 0 2.77.205 4.307.785l-.205 1.882c-1.127-.513-2.665-.82-3.861-.82-2.223 0-3.762.682-3.762 2.905 0 3.248 8.582 2.838 8.582 8.547 0 3.693-3.455 4.956-6.087 4.956-1.674 0-3.35-.205-4.889-.818zM461.13 115.28c0 1.332 0 2.7.138 4.102h-2.087v-3.11h-.067c-.718 1.57-2.017 3.52-5.64 3.52-4.308 0-5.95-2.873-5.95-6.701v-11.146h2.154v10.598c0 3.284 1.163 5.404 4.138 5.404 3.93 0 5.16-3.455 5.16-6.36v-9.642h2.154zM469.199 101.945h2.153v17.437H469.2zm2.153-4.649H469.2v-2.87h2.153zM478.122 116.852c1.299.65 2.872 1.095 4.547 1.095 2.051 0 3.862-1.13 3.862-3.112 0-4.135-8.376-3.486-8.376-8.547 0-3.453 2.803-4.752 5.675-4.752.923 0 2.77.205 4.307.785l-.205 1.882c-1.127-.513-2.665-.82-3.862-.82-2.222 0-3.761.682-3.761 2.905 0 3.248 8.58 2.838 8.58 8.547 0 3.693-3.453 4.956-6.084 4.956-1.675 0-3.35-.205-4.888-.818zM494.088 116.852c1.301.65 2.873 1.095 4.55 1.095 2.05 0 3.859-1.13 3.859-3.112 0-4.135-8.376-3.486-8.376-8.547 0-3.453 2.804-4.752 5.679-4.752.92 0 2.77.205 4.305.785l-.205 1.882c-1.125-.513-2.665-.82-3.863-.82-2.22 0-3.76.682-3.76 2.905 0 3.248 8.584 2.838 8.584 8.547 0 3.693-3.458 4.956-6.086 4.956-1.677 0-3.354-.205-4.894-.818zM522.02 109.433c0-3.043-1.23-6.05-4.443-6.05-3.184 0-5.13 3.179-5.13 6.05zm1.061 9.402c-1.508.616-3.453.956-5.062.956-5.777 0-7.932-3.897-7.932-9.127 0-5.333 2.943-9.128 7.35-9.128 4.924 0 6.942 3.967 6.942 8.65v1.094h-11.932c0 3.693 1.982 6.667 5.74 6.667 1.577 0 3.864-.65 4.894-1.3zM191.67 145.341c-1.504-.785-3.66-1.025-5.334-1.025-6.187 0-9.676 4.375-9.676 10.29 0 6.016 3.386 10.29 9.676 10.29 1.572 0 3.966-.205 5.334-1.026l.136 2.051c-1.3.788-3.965 1.026-5.47 1.026-7.522 0-12.033-4.957-12.033-12.34 0-7.248 4.649-12.342 12.033-12.342 1.401 0 4.24.238 5.47.887zM206.473 165.103c3.762 0 5.777-3.248 5.777-7.284 0-4.033-2.015-7.281-5.777-7.281-3.76 0-5.778 3.248-5.778 7.28 0 4.037 2.018 7.285 5.778 7.285m0-16.412c5.641 0 8.137 4.376 8.137 9.128s-2.496 9.128-8.137 9.128c-5.64 0-8.136-4.376-8.136-9.128s2.496-9.128 8.136-9.128M221.344 153.205c0-1.334 0-2.7-.135-4.104h2.084v3.112h.07c.716-1.573 2.015-3.522 5.638-3.522 4.31 0 5.95 2.872 5.95 6.701v11.145h-2.154V155.94c0-3.281-1.162-5.401-4.136-5.401-3.933 0-5.163 3.452-5.163 6.358v9.641h-2.154zM244.49 150.947h-3.522v-1.846h3.521v-1.264c0-3.657.136-7.35 4.614-7.35.685 0 1.609.102 2.018.342l-.136 1.88c-.444-.24-1.094-.376-1.71-.376-2.94 0-2.632 3.18-2.632 5.264v1.504h3.93v1.846h-3.93v15.59h-2.154zM267.701 156.589c0-3.044-1.23-6.051-4.442-6.051-3.182 0-5.13 3.179-5.13 6.05zm1.061 9.401c-1.504.617-3.452.957-5.06.957-5.778 0-7.932-3.898-7.932-9.128 0-5.332 2.941-9.128 7.35-9.128 4.924 0 6.941 3.967 6.941 8.65v1.094H258.13c0 3.693 1.984 6.668 5.743 6.668 1.573 0 3.865-.65 4.89-1.3zM283.325 165.103c3.828 0 5.161-4.105 5.161-7.284s-1.333-7.281-5.161-7.281c-4.102 0-5.164 3.898-5.164 7.28 0 3.387 1.062 7.285 5.164 7.285m7.316 1.434h-2.155v-2.77h-.067c-1.164 2.223-2.941 3.18-5.437 3.18-4.785 0-7.179-3.965-7.179-9.128 0-5.299 2.051-9.128 7.18-9.128 3.419 0 5.127 2.497 5.436 3.35h.067v-11.145h2.155zM309.135 156.589c0-3.044-1.23-6.051-4.443-6.051-3.18 0-5.13 3.179-5.13 6.05zm1.06 9.401c-1.503.617-3.452.957-5.06.957-5.777 0-7.931-3.898-7.931-9.128 0-5.332 2.941-9.128 7.35-9.128 4.923 0 6.941 3.967 6.941 8.65v1.094h-11.933c0 3.693 1.985 6.668 5.744 6.668 1.573 0 3.864-.65 4.89-1.3zM318.265 152.998c0-1.913 0-2.631-.136-3.897h2.153v3.35h.067c.788-1.946 2.258-3.76 4.48-3.76.512 0 1.128.103 1.504.205v2.258c-.445-.138-1.025-.207-1.572-.207-3.42 0-4.343 3.831-4.343 6.974v8.616h-2.153zM342.128 157.75h-.616c-3.726 0-8.171.378-8.171 4.207 0 2.29 1.642 3.146 3.624 3.146 5.058 0 5.163-4.412 5.163-6.292zm.205 5.984h-.07c-.956 2.085-3.383 3.213-5.538 3.213-4.957 0-5.742-3.35-5.742-4.923 0-5.844 6.222-6.118 10.734-6.118h.411v-.89c0-2.974-1.061-4.478-3.966-4.478-1.814 0-3.522.41-5.128 1.435v-2.085c1.333-.65 3.588-1.197 5.128-1.197 4.307 0 6.12 1.95 6.12 6.496v7.693c0 1.402 0 2.46.17 3.657h-2.12zM350.468 164.727l10.496-13.78h-10.086v-1.846h12.58v1.846l-10.494 13.744h10.494v1.846h-12.99zM369.92 149.1h2.154v17.437h-2.154zm2.154-4.649h-2.154v-2.87h2.154zM386.979 165.103c3.762 0 5.777-3.248 5.777-7.284 0-4.033-2.015-7.281-5.777-7.281-3.76 0-5.777 3.248-5.777 7.28 0 4.037 2.017 7.285 5.777 7.285m0-16.412c5.641 0 8.138 4.376 8.138 9.128s-2.497 9.128-8.138 9.128c-5.64 0-8.136-4.376-8.136-9.128s2.496-9.128 8.136-9.128M401.85 153.205c0-1.334 0-2.7-.135-4.104h2.084v3.112h.07c.716-1.573 2.014-3.522 5.639-3.522 4.309 0 5.948 2.872 5.948 6.701v11.145h-2.153V155.94c0-3.281-1.161-5.401-4.136-5.401-3.933 0-5.163 3.452-5.163 6.358v9.641h-2.154zM434.156 156.589c0-3.044-1.23-6.051-4.442-6.051-3.181 0-5.13 3.179-5.13 6.05zm1.062 9.401c-1.504.617-3.453.957-5.061.957-5.778 0-7.931-3.898-7.931-9.128 0-5.332 2.94-9.128 7.35-9.128 4.923 0 6.94 3.967 6.94 8.65v1.094h-11.932c0 3.693 1.984 6.668 5.744 6.668 1.573 0 3.864-.65 4.89-1.3zM454.706 163.494c1.4.89 3.04 1.402 5.263 1.402 2.94 0 5.368-1.504 5.368-4.888 0-4.685-10.94-5.266-10.94-11.521 0-3.829 3.35-6.222 7.556-6.222 1.162 0 3.041.17 4.683.785l-.376 2.156c-1.059-.583-2.736-.89-4.342-.89-2.461 0-5.161 1.025-5.161 4.102 0 4.787 10.938 4.82 10.938 11.795 0 4.82-4.136 6.734-7.828 6.734-2.325 0-4.136-.478-5.402-1.026zM480.925 166.537h-2.53l-5.915-17.436h2.36l4.821 15.078h.067l5.061-15.078h2.256zM492.72 149.1h2.155v17.437h-2.155zm2.155-4.649h-2.155v-2.87h2.155zM501.372 164.727l10.497-13.78h-10.087v-1.846h12.579v1.846l-10.493 13.744h10.493v1.846h-12.99zM519.218 164.727l10.497-13.78h-10.087v-1.846h12.579v1.846l-10.493 13.744h10.493v1.846h-12.99zM549.296 156.589c0-3.044-1.23-6.051-4.442-6.051-3.18 0-5.13 3.179-5.13 6.05zm1.062 9.401c-1.503.617-3.449.957-5.057.957-5.782 0-7.932-3.898-7.932-9.128 0-5.332 2.938-9.128 7.349-9.128 4.925 0 6.939 3.967 6.939 8.65v1.094h-11.933c0 3.693 1.987 6.668 5.745 6.668 1.572 0 3.864-.65 4.89-1.3zM558.427 152.998c0-1.913 0-2.631-.132-3.897h2.15v3.35h.068c.789-1.946 2.256-3.76 4.479-3.76.515 0 1.13.103 1.504.205v2.258c-.442-.138-1.026-.207-1.572-.207-3.417 0-4.342 3.831-4.342 6.974v8.616h-2.155zM582.291 157.75h-.615c-3.727 0-8.173.378-8.173 4.207 0 2.29 1.644 3.146 3.626 3.146 5.057 0 5.162-4.412 5.162-6.292zm.205 5.984h-.068c-.957 2.085-3.385 3.213-5.54 3.213-4.957 0-5.74-3.35-5.74-4.923 0-5.844 6.223-6.118 10.733-6.118h.41v-.89c0-2.974-1.061-4.478-3.964-4.478-1.813 0-3.521.41-5.13 1.435v-2.085c1.335-.65 3.59-1.197 5.13-1.197 4.306 0 6.12 1.95 6.12 6.496v7.693c0 1.402 0 2.46.168 3.657h-2.119zM191.67 192.494c-1.504-.785-3.66-1.025-5.334-1.025-6.187 0-9.676 4.375-9.676 10.291 0 6.015 3.386 10.289 9.676 10.289 1.572 0 3.966-.205 5.334-1.026l.136 2.051c-1.3.788-3.965 1.026-5.47 1.026-7.522 0-12.033-4.956-12.033-12.34 0-7.248 4.649-12.342 12.033-12.342 1.401 0 4.24.238 5.47.887zM206.473 212.256c3.762 0 5.777-3.248 5.777-7.284 0-4.033-2.015-7.281-5.777-7.281-3.76 0-5.778 3.248-5.778 7.281 0 4.036 2.018 7.284 5.778 7.284m0-16.412c5.641 0 8.137 4.377 8.137 9.128s-2.496 9.128-8.137 9.128c-5.64 0-8.136-4.376-8.136-9.128s2.496-9.128 8.136-9.128M221.344 200.359c0-1.335 0-2.701-.135-4.105h2.084v3.112h.07c.716-1.572 2.015-3.522 5.638-3.522 4.31 0 5.95 2.873 5.95 6.701v11.145h-2.154v-10.598c0-3.28-1.162-5.401-4.136-5.401-3.933 0-5.163 3.453-5.163 6.358v9.641h-2.154zM244.49 198.1h-3.522v-1.846h3.521v-1.264c0-3.657.136-7.35 4.614-7.35.685 0 1.609.102 2.018.343l-.136 1.88c-.444-.24-1.094-.376-1.71-.376-2.94 0-2.632 3.179-2.632 5.263v1.504h3.93v1.846h-3.93v15.59h-2.154zM267.701 203.742c0-3.043-1.23-6.051-4.442-6.051-3.182 0-5.13 3.18-5.13 6.051zm1.061 9.401c-1.504.617-3.452.957-5.06.957-5.778 0-7.932-3.898-7.932-9.128 0-5.332 2.941-9.128 7.35-9.128 4.924 0 6.941 3.967 6.941 8.65v1.094H258.13c0 3.693 1.984 6.668 5.743 6.668 1.573 0 3.865-.65 4.89-1.3zM283.325 212.256c3.828 0 5.161-4.105 5.161-7.284s-1.333-7.281-5.161-7.281c-4.102 0-5.164 3.898-5.164 7.281 0 3.386 1.062 7.284 5.164 7.284m7.316 1.434h-2.155v-2.77h-.067c-1.164 2.223-2.941 3.18-5.437 3.18-4.785 0-7.179-3.965-7.179-9.128 0-5.299 2.051-9.128 7.18-9.128 3.419 0 5.127 2.497 5.436 3.351h.067v-11.146h2.155zM309.135 203.742c0-3.043-1.23-6.051-4.443-6.051-3.18 0-5.13 3.18-5.13 6.051zm1.06 9.401c-1.503.617-3.452.957-5.06.957-5.777 0-7.931-3.898-7.931-9.128 0-5.332 2.941-9.128 7.35-9.128 4.923 0 6.941 3.967 6.941 8.65v1.094h-11.933c0 3.693 1.985 6.668 5.744 6.668 1.573 0 3.864-.65 4.89-1.3zM318.265 200.151c0-1.913 0-2.631-.136-3.897h2.153v3.35h.067c.788-1.946 2.258-3.76 4.48-3.76.512 0 1.128.103 1.504.206v2.258c-.445-.139-1.025-.208-1.572-.208-3.42 0-4.343 3.831-4.343 6.975v8.615h-2.153zM342.128 204.903h-.616c-3.726 0-8.171.378-8.171 4.207 0 2.29 1.642 3.146 3.624 3.146 5.058 0 5.163-4.412 5.163-6.292zm.205 5.984h-.07c-.956 2.085-3.383 3.213-5.538 3.213-4.957 0-5.742-3.35-5.742-4.923 0-5.844 6.222-6.118 10.734-6.118h.411v-.89c0-2.974-1.061-4.478-3.966-4.478-1.814 0-3.522.409-5.128 1.435v-2.085c1.333-.65 3.588-1.197 5.128-1.197 4.307 0 6.12 1.95 6.12 6.496v7.693c0 1.402 0 2.46.17 3.657h-2.12zM350.468 211.88l10.496-13.78h-10.086v-1.846h12.58v1.846l-10.494 13.744h10.494v1.846h-12.99zM369.92 196.254h2.154v17.436h-2.154zm2.154-4.65h-2.154v-2.87h2.154zM393.782 209.588c0 1.333 0 2.701.138 4.102h-2.087v-3.11h-.067c-.718 1.571-2.018 3.52-5.642 3.52-4.306 0-5.948-2.87-5.948-6.7v-11.146h2.153v10.598c0 3.283 1.164 5.404 4.138 5.404 3.931 0 5.161-3.455 5.161-6.36v-9.642h2.154zM401.85 200.359c0-1.335 0-2.701-.135-4.105h2.084v3.112h.07c.716-1.572 2.014-3.522 5.639-3.522 4.309 0 5.948 2.873 5.948 6.701v11.145h-2.153v-10.598c0-3.28-1.161-5.401-4.136-5.401-3.933 0-5.163 3.453-5.163 6.358v9.641h-2.154zM434.02 211.16c1.3.65 2.873 1.096 4.548 1.096 2.051 0 3.862-1.13 3.862-3.112 0-4.136-8.376-3.487-8.376-8.548 0-3.452 2.803-4.752 5.675-4.752.923 0 2.77.206 4.307.788l-.204 1.88c-1.128-.514-2.666-.821-3.863-.821-2.222 0-3.761.683-3.761 2.905 0 3.248 8.58 2.839 8.58 8.548 0 3.692-3.453 4.956-6.084 4.956-1.675 0-3.35-.205-4.888-.819zM457.37 213.69h-2.529l-5.915-17.436h2.36l4.82 15.078h.067l5.062-15.078h2.255zM469.165 196.254h2.154v17.436h-2.154zm2.154-4.65h-2.154v-2.87h2.154zM477.815 211.88l10.495-13.78h-10.086v-1.846h12.58v1.846l-10.493 13.744h10.493v1.846h-12.99zM497.267 200.151c0-1.913 0-2.631-.137-3.897h2.155v3.35h.068c.784-1.946 2.255-3.76 4.479-3.76.51 0 1.125.103 1.503.206v2.258c-.446-.139-1.025-.208-1.572-.208-3.421 0-4.341 3.831-4.341 6.975v8.615h-2.155zM521.131 204.903h-.615c-3.727 0-8.174.378-8.174 4.207 0 2.29 1.64 3.146 3.627 3.146 5.057 0 5.162-4.412 5.162-6.292zm.205 5.984h-.068c-.957 2.085-3.385 3.213-5.54 3.213-4.957 0-5.741-3.35-5.741-4.923 0-5.844 6.219-6.118 10.73-6.118h.414v-.89c0-2.974-1.062-4.478-3.968-4.478-1.814 0-3.522.41-5.126 1.435v-2.085c1.33-.65 3.586-1.197 5.126-1.197 4.31 0 6.118 1.95 6.118 6.496v7.693c0 1.402 0 2.46.174 3.657h-2.119z" style="fill:#000;fill-opacity:1;fill-rule:nonzero;stroke:none"/>
    <path d="M135.516 47.317s-18.082-7.92-48.354-7.92h-.01c-30.272 0-48.359 7.92-48.359 7.92s-1.619 35.065 5.246 54.891c12.124 34.86 43.11 44.653 43.11 44.653h.018s30.98-9.793 43.108-44.653c6.865-19.826 5.241-54.89 5.241-54.89" style="fill:red;fill-opacity:1;fill-rule:nonzero;stroke:none"/>
    <path d="M119.294 77.546v19.318h-22.54v22.54H77.435v-22.54h-22.54V77.546h22.54V55.01H96.75l.004 22.536z" style="fill:#fff;fill-opacity:1;fill-rule:nonzero;stroke:none"/>
</svg>
